<svg width="128" height="128" viewBox="0 0 128 128" fill="none" xmlns="http://www.w3.org/2000/svg">
  <rect width="128" height="128" rx="24" fill="#0F766E"/>
  <path d="M34 79V45C34 39.4772 38.4772 35 44 35H84C89.5229 35 94 39.4772 94 45V79C94 84.5228 89.5229 89 84 89H44C38.4772 89 34 84.5228 34 79Z" fill="#F7F7F2"/>
  <path d="M48 76V51H66C73.1797 51 78 55.0557 78 61.2812C78 65.3415 75.895 68.3925 72.4484 69.8869L80 76H68.8698L62.5414 70.5652H57.7071V76H48ZM57.7071 63.3261H64.987C66.9136 63.3261 68.1598 62.3705 68.1598 60.7935C68.1598 59.2166 66.9136 58.2609 64.987 58.2609H57.7071V63.3261Z" fill="#0F766E"/>
</svg>
